<svg xmlns="http://www.w3.org/2000/svg" version="1.1" xmlns:xlink="http://www.w3.org/1999/xlink" xmlns:svgjs="http://svgjs.dev/svgjs" width="1000" height="750" viewBox="0 0 1000 750"><rect width="1000" height="750" fill="#ffffff"></rect><g transform="matrix(0.834,0,0,0.834,83.03855868591887,0.7630311926606055)"><svg viewBox="0 0 364 327" data-background-color="#ffffff" preserveAspectRatio="xMidYMid meet" height="898" width="1000" xmlns="http://www.w3.org/2000/svg" xmlns:xlink="http://www.w3.org/1999/xlink"><g id="tight-bounds" transform="matrix(1,0,0,1,-0.01682897083270518,-0.10000000000002274)"><svg viewBox="0 0 364.0336579416654 327.2" height="327.2" width="364.0336579416654"><g><svg viewBox="0 0 395.52000000000004 355.50049061874927" height="327.2" width="364.0336579416654"><g transform="matrix(1,0,0,1,0,233.26391045119527)"><svg viewBox="0 0 395.52000000000004 122.23658016755402" height="122.23658016755402" width="395.52000000000004"><g id="textblocktransform"><svg viewBox="0 0 395.52000000000004 122.23658016755402" height="122.23658016755402" width="395.52000000000004" id="textblock"><g><svg viewBox="0 0 395.52000000000004 122.23658016755402" height="122.23658016755402" width="395.52000000000004"><g transform="matrix(1,0,0,1,0,0)"><svg width="395.52000000000004" viewBox="-1.43927001953125 -36.78110885620117 162.71749877929688 50.28831100463867" height="122.23658016755402" data-palette-color="#000000"><path d="M4.218 13.507v0c-0.816-0.244-1.379-0.576-1.688-0.993-0.311-0.424-0.507-0.798-0.587-1.122v0c-0.224-0.906-0.195-2.218 0.087-3.936 0.276-1.716 0.727-3.71 1.354-5.981 0.621-2.262 1.347-4.629 2.177-7.101v0c-1.221 0.199-2.257 0.387-3.105 0.563-0.849 0.176-1.581 0.34-2.197 0.492v0l-1.698 0.42c0.124-1.026 0.586-1.838 1.386-2.434 0.795-0.588 1.808-1.035 3.037-1.339v0c0.55-0.136 1.124-0.244 1.723-0.323 0.598-0.079 1.217-0.147 1.856-0.202v0c1.034-2.9 2.127-5.739 3.28-8.517 1.148-2.77 2.25-5.258 3.304-7.462 1.05-2.196 1.96-3.888 2.731-5.075v0c0.714-1.138 1.379-1.783 1.993-1.936v0c0.356-0.088 0.788-0.051 1.295 0.113 0.502 0.171 1.056 0.439 1.662 0.804v0c-0.26 0.339-0.5 1.13-0.721 2.373-0.229 1.238-0.417 2.768-0.564 4.589-0.153 1.824-0.256 3.806-0.31 5.949-0.054 2.142-0.056 4.313-0.006 6.512 0.045 2.207 0.164 4.283 0.356 6.227 0.186 1.946 0.455 3.63 0.808 5.054v0c0.304 1.23 0.68 2.15 1.126 2.76 0.44 0.612 0.984 0.838 1.631 0.678v0c0.841-0.208 1.652-1.027 2.431-2.456 0.78-1.429 1.496-3.529 2.149-6.3v0l0.606 0.365c-0.33 2.829-1.042 5.254-2.135 7.276-1.099 2.023-2.458 3.235-4.076 3.635v0c-1.327 0.328-2.434-0.026-3.323-1.063-0.893-1.029-1.584-2.53-2.072-4.504v0c-0.256-1.035-0.465-2.186-0.628-3.45-0.155-1.266-0.268-2.595-0.337-3.986v0c-1.48 0.126-2.827 0.26-4.042 0.403-1.22 0.151-2.347 0.285-3.382 0.404v0c-0.824 3.191-1.586 6.453-2.286 9.786-0.706 3.334-1.318 6.593-1.835 9.777zM15.682-8.645v0c-0.043-2.256-0.012-4.557 0.094-6.905 0.107-2.341 0.283-4.589 0.526-6.744 0.236-2.153 0.494-4.054 0.773-5.702v0c-0.851 0.863-1.736 2.239-2.656 4.128-0.925 1.898-1.837 4.149-2.738 6.756-0.899 2.612-1.776 5.45-2.632 8.511v0c1.156-0.046 2.312-0.067 3.466-0.064 1.15 0.011 2.205 0.017 3.167 0.02zM32.648 3.729v0c-1.414 0.237-2.507-0.077-3.28-0.941-0.768-0.872-1.273-2.031-1.516-3.477v0c-0.265-1.578-0.283-3.501-0.055-5.77 0.228-2.269 0.627-4.685 1.198-7.248 0.564-2.562 1.23-5.083 1.997-7.565 0.768-2.474 1.57-4.745 2.407-6.811 0.836-2.067 1.648-3.741 2.433-5.022 0.779-1.28 1.448-1.966 2.007-2.06v0c0.362-0.061 0.692 0.094 0.99 0.463 0.3 0.376 0.563 0.838 0.791 1.388 0.229 0.557 0.381 1.065 0.458 1.525v0c0.149 0.888 0.123 2.082-0.079 3.583-0.207 1.508-0.564 3.207-1.072 5.097-0.513 1.898-1.169 3.833-1.967 5.805-0.804 1.98-1.719 3.901-2.745 5.763-1.02 1.861-2.154 3.504-3.401 4.931v0c-0.048 0.921-0.059 1.808-0.031 2.661 0.023 0.861 0.098 1.67 0.225 2.427v0c0.215 1.282 0.556 2.205 1.022 2.769 0.466 0.564 1.061 0.785 1.784 0.664v0c0.888-0.149 1.703-0.691 2.445-1.627 0.736-0.934 1.39-2.068 1.964-3.401 0.569-1.326 1.025-2.676 1.369-4.052v0l0.806 0.27c-0.847 3.015-1.906 5.464-3.179 7.347-1.272 1.89-2.795 2.983-4.571 3.281zM30.976-8.361v0c0.958-1.344 1.853-2.856 2.687-4.537 0.835-1.674 1.587-3.396 2.258-5.164 0.664-1.767 1.23-3.468 1.699-5.102 0.47-1.633 0.801-3.085 0.994-4.354 0.194-1.263 0.236-2.223 0.126-2.88v0c-0.055-0.329-0.13-0.536-0.226-0.621-0.102-0.084-0.186-0.121-0.252-0.11v0c-0.263 0.044-0.643 0.537-1.141 1.479-0.503 0.95-1.064 2.203-1.681 3.759-0.618 1.557-1.219 3.314-1.804 5.271-0.584 1.957-1.112 3.989-1.584 6.096-0.478 2.108-0.837 4.162-1.076 6.163zM44.183 1.856v0c-1.423 0.175-2.501-0.186-3.237-1.082-0.729-0.904-1.184-2.084-1.363-3.54v0c-0.196-1.588-0.13-3.51 0.197-5.767 0.327-2.257 0.831-4.653 1.513-7.189 0.675-2.535 1.45-5.025 2.324-7.47 0.875-2.439 1.776-4.672 2.701-6.701 0.926-2.028 1.809-3.665 2.65-4.91 0.834-1.245 1.532-1.902 2.095-1.971v0c0.364-0.045 0.687 0.124 0.969 0.505 0.283 0.388 0.526 0.862 0.729 1.422 0.204 0.566 0.335 1.081 0.392 1.544v0c0.11 0.893 0.032 2.085-0.235 3.575-0.272 1.498-0.703 3.18-1.293 5.046-0.595 1.873-1.335 3.778-2.218 5.714-0.889 1.943-1.887 3.823-2.994 5.638-1.1 1.815-2.304 3.407-3.613 4.777v0c-0.088 0.918-0.137 1.804-0.146 2.658-0.015 0.862 0.025 1.673 0.118 2.434v0c0.159 1.29 0.459 2.227 0.901 2.811 0.441 0.584 1.026 0.831 1.753 0.741v0c0.893-0.11 1.731-0.616 2.514-1.518 0.776-0.902 1.479-2.006 2.111-3.313 0.626-1.3 1.141-2.629 1.544-3.989v0l0.793 0.306c-0.977 2.975-2.142 5.375-3.496 7.201-1.353 1.832-2.923 2.859-4.709 3.078zM43.039-10.295v0c1.015-1.301 1.976-2.772 2.882-4.415 0.907-1.636 1.733-3.323 2.48-5.061 0.74-1.737 1.38-3.411 1.921-5.023 0.54-1.611 0.935-3.047 1.182-4.306 0.249-1.253 0.332-2.211 0.251-2.873v0c-0.041-0.331-0.107-0.541-0.199-0.63-0.098-0.089-0.18-0.129-0.246-0.121v0c-0.265 0.033-0.666 0.509-1.205 1.428-0.544 0.927-1.159 2.154-1.843 3.683-0.685 1.529-1.362 3.258-2.032 5.187-0.669 1.93-1.285 3.937-1.848 6.021-0.569 2.085-1.017 4.122-1.343 6.11zM53.953 1.517v0c-1.031 0.068-1.928-0.214-2.692-0.845-0.757-0.638-1.181-1.656-1.273-3.053v0c-0.079-1.197 0.102-2.505 0.544-3.924 0.442-1.412 1.084-2.824 1.926-4.236 0.843-1.405 1.82-2.705 2.93-3.9 1.104-1.188 2.293-2.159 3.566-2.911 1.267-0.751 2.549-1.17 3.846-1.255v0c1.297-0.085 2.401 0.183 3.31 0.804 0.91 0.628 1.402 1.508 1.477 2.639v0c0.055 0.832-0.131 1.412-0.557 1.74-0.433 0.329-1.015 0.518-1.747 0.566v0c0.049-0.27 0.09-0.567 0.122-0.89 0.026-0.316 0.03-0.607 0.013-0.873v0c-0.05-0.765-0.277-1.412-0.679-1.939-0.402-0.521-1.052-0.753-1.95-0.694v0c-0.931 0.061-1.858 0.446-2.78 1.155-0.922 0.715-1.796 1.641-2.623 2.779-0.827 1.143-1.548 2.37-2.163 3.68-0.615 1.31-1.082 2.593-1.401 3.85-0.318 1.257-0.445 2.368-0.382 3.332v0c0.085 1.297 0.577 1.916 1.476 1.857v0c0.765-0.05 1.573-0.464 2.423-1.241 0.851-0.771 1.716-1.746 2.594-2.927 0.872-1.173 1.7-2.387 2.486-3.641 0.786-1.254 1.479-2.402 2.078-3.444v0c0.12-0.208 0.197-0.314 0.23-0.316v0c0.202 0.02 0.466 0.07 0.791 0.148 0.319 0.079 0.601 0.194 0.845 0.346 0.244 0.151 0.374 0.36 0.392 0.625v0c0.02 0.299-0.103 0.715-0.369 1.247-0.265 0.539-0.559 1.153-0.881 1.842-0.322 0.689-0.61 1.383-0.865 2.081-0.254 0.705-0.362 1.357-0.322 1.956v0c0.033 0.499 0.198 0.979 0.495 1.44 0.298 0.468 0.746 0.682 1.345 0.643v0c0.898-0.059 2.035-0.795 3.413-2.208 1.377-1.407 2.728-3.473 4.051-6.2v0l0.532 0.466c-0.58 1.842-1.374 3.481-2.382 4.917-1.008 1.436-2.112 2.578-3.312 3.425-1.194 0.847-2.389 1.31-3.587 1.389v0c-1.231 0.081-2.159-0.225-2.786-0.919-0.634-0.693-0.979-1.472-1.036-2.337v0c-0.013-0.2-0.011-0.427 0.005-0.682 0.017-0.248 0.033-0.507 0.049-0.775v0c-1.303 2.023-2.512 3.556-3.625 4.598-1.121 1.043-2.296 1.604-3.527 1.685zM88.843-0.922v0c-1.166-0.02-2.034-0.335-2.604-0.946-0.576-0.61-0.856-1.382-0.839-2.314v0c0.012-0.7 0.152-1.431 0.418-2.194 0.26-0.762 0.514-1.551 0.761-2.367 0.247-0.809 0.378-1.597 0.391-2.363v0c0.016-0.933-0.163-1.58-0.536-1.94-0.381-0.353-0.854-0.535-1.421-0.545v0c-1.033-0.018-2.09 0.387-3.172 1.216-1.081 0.835-2.133 1.9-3.156 3.195-1.023 1.302-1.98 2.646-2.87 4.031-0.891 1.385-1.679 2.621-2.365 3.709v0c-0.533-0.009-1.042-0.108-1.525-0.296-0.477-0.195-0.845-0.478-1.105-0.849v0c0.003-0.167 0.185-0.68 0.546-1.541 0.368-0.86 0.797-1.92 1.286-3.178 0.489-1.258 0.928-2.551 1.317-3.878 0.39-1.327 0.594-2.54 0.614-3.64v0c0.204-0.23 0.525-0.458 0.962-0.683 0.437-0.226 0.889-0.335 1.356-0.327v0c0.9 0.016 1.342 0.457 1.327 1.323v0c-0.009 0.533-0.175 1.421-0.496 2.662-0.322 1.248-0.728 2.551-1.219 3.91v0c0.924-1.351 1.957-2.693 3.101-4.027 1.137-1.327 2.346-2.43 3.628-3.308 1.282-0.878 2.556-1.306 3.823-1.283v0c1.3 0.023 2.235 0.506 2.805 1.449 0.564 0.943 0.836 1.981 0.816 3.114v0c-0.018 1.033-0.201 1.987-0.55 2.861-0.349 0.881-0.703 1.728-1.064 2.542-0.367 0.807-0.558 1.627-0.573 2.46v0c-0.012 0.7 0.123 1.192 0.405 1.478 0.275 0.291 0.629 0.441 1.062 0.448v0c0.833 0.014 1.673-0.364 2.52-1.136 0.847-0.765 1.674-1.741 2.481-2.928 0.801-1.186 1.512-2.391 2.133-3.613v0l0.539 0.659c-0.728 1.621-1.537 3.057-2.425 4.309-0.889 1.251-1.856 2.235-2.902 2.95-1.046 0.715-2.202 1.062-3.469 1.04zM93.996 1.168v0c0.268-1.109 1.198-1.86 2.79-2.252 1.593-0.399 3.703-0.55 6.33-0.454 2.62 0.101 5.568 0.35 8.845 0.745v0c2.449 0.296 4.506 0.584 6.17 0.866 1.657 0.287 3.125 0.565 4.402 0.834 1.276 0.275 2.564 0.541 3.862 0.798 1.292 0.257 2.798 0.489 4.519 0.697v0c-1.469 0.763-2.965 1.197-4.488 1.301-1.523 0.098-2.814 0.083-3.872-0.044v0c-3.243-0.392-6.008-0.715-8.294-0.971-2.285-0.262-4.228-0.49-5.83-0.684-1.608-0.194-3.01-0.347-4.205-0.457v0c-0.931-0.079-1.785-0.148-2.564-0.209-0.785-0.061-1.562-0.105-2.331-0.13-0.769-0.026-1.58-0.04-2.433-0.042-0.859-0.003-1.826-0.002-2.901 0.002zM150.3 8.827v0c-0.905-0.23-1.602-0.734-2.092-1.513-0.49-0.778-0.8-1.682-0.931-2.712-0.137-1.032-0.167-2.061-0.092-3.088 0.07-1.035 0.2-1.923 0.389-2.667v0c0.355 0.09 0.895 0.131 1.62 0.123 0.723-0.002 1.486-0.097 2.291-0.284 0.806-0.194 1.537-0.527 2.194-1 0.649-0.468 1.076-1.106 1.281-1.914v0c0.172-0.678 0.066-1.273-0.321-1.784-0.386-0.511-0.902-0.848-1.548-1.012v0c-1.001-0.255-2.026-0.147-3.074 0.322-1.05 0.476-2.061 1.182-3.035 2.118-0.982 0.94-1.908 1.971-2.778 3.091-0.869 1.12-1.642 2.197-2.317 3.228-0.675 1.032-1.236 1.887-1.683 2.565v0c-0.342 0.532-0.717 0.86-1.127 0.982-0.408 0.116-0.806 0.125-1.193 0.027v0c-0.549-0.14-0.886-0.466-1.01-0.979-0.131-0.515-0.13-1.127 0.002-1.836 0.124-0.704 0.281-1.428 0.469-2.171v0c0.427-1.68 1.194-3.548 2.303-5.606 1.108-2.057 2.426-4.157 3.954-6.3 1.52-2.138 3.113-4.182 4.778-6.132 1.665-1.95 3.277-3.69 4.835-5.219 1.558-1.53 2.941-2.709 4.149-3.537 1.208-0.828 2.103-1.168 2.684-1.02v0c0.452 0.115 0.739 0.515 0.861 1.199 0.115 0.683 0.062 1.46-0.159 2.333v0c-0.279 1.098-0.835 2.271-1.668 3.517-0.834 1.253-1.871 2.462-3.11 3.626-1.245 1.162-2.627 2.204-4.147 3.124-1.527 0.919-3.112 1.634-4.755 2.145v0c-1.731 2.346-3.176 4.685-4.333 7.019-1.165 2.338-1.962 4.347-2.389 6.027v0c0.845-1.161 1.83-2.424 2.955-3.789 1.118-1.367 2.326-2.642 3.624-3.825 1.298-1.183 2.612-2.088 3.94-2.713 1.328-0.625 2.59-0.786 3.785-0.482v0c1.195 0.304 2.106 0.983 2.733 2.036 0.626 1.053 0.788 2.178 0.484 3.373v0c-0.263 1.034-0.751 1.845-1.465 2.434-0.722 0.594-1.516 1.011-2.382 1.252-0.874 0.246-1.715 0.376-2.524 0.39-0.817 0.019-1.467-0.033-1.952-0.156v0c-0.033 0.267-0.056 0.76-0.066 1.48-0.011 0.719 0.044 1.49 0.165 2.312 0.115 0.82 0.331 1.553 0.649 2.197 0.316 0.651 0.797 1.059 1.443 1.224v0c0.937 0.238 1.916 0.109 2.936-0.389 1.021-0.497 2.062-1.24 3.126-2.229 1.055-0.984 2.094-2.137 3.118-3.458v0l0.361 0.608c-0.855 1.468-1.929 2.784-3.222 3.948-1.295 1.17-2.628 2.056-3.998 2.657-1.375 0.593-2.628 0.745-3.758 0.458zM148.386-13.276v0c1.79-0.818 3.437-1.843 4.941-3.078 1.497-1.236 2.732-2.48 3.704-3.732 0.97-1.246 1.558-2.273 1.763-3.081v0c0.041-0.162 0.063-0.276 0.067-0.344-0.003-0.07-0.037-0.113-0.101-0.129v0c-0.323-0.082-1.022 0.342-2.099 1.272-1.082 0.929-2.36 2.193-3.832 3.793-1.475 1.606-2.955 3.372-4.443 5.299z" opacity="1" transform="matrix(1,0,0,1,0,0)" fill="#000000" class="wordmark-text-0" data-fill-palette-color="primary" id="text-0"></path></svg></g></svg></g></svg></g></svg></g><g transform="matrix(1,0,0,1,112.26187866134639,0)"><svg viewBox="0 0 170.99624267730727 197.77878671110238" height="197.77878671110238" width="170.99624267730727"><g><svg xmlns="http://www.w3.org/2000/svg" xmlns:xlink="http://www.w3.org/1999/xlink" version="1.1" x="0" y="0" viewBox="9 1 83 96" enable-background="new 0 0 100 100" xml:space="preserve" height="197.77878671110238" width="170.99624267730727" class="icon-icon-0" data-fill-palette-color="accent" id="icon-0"><g fill="#000000" data-fill-palette-color="accent"><path fill="#000000" d="M71.3 10.01C57.831 10.01 50.55 1 50.55 1s-7.306 9.01-20.774 9.01C17.371 10.01 9 2.528 9 2.528v48.928C9.378 83.682 50.5 97 50.5 97S92 83.682 92 51.456V2.528C92 2.528 83.703 10.01 71.3 10.01z" data-fill-palette-color="accent"></path></g></svg></g></svg></g><g></g></svg></g><defs></defs></svg><rect width="364.0336579416654" height="327.2" fill="none" stroke="none" visibility="hidden"></rect></g></svg></g></svg>